<mxfile host="app.diagrams.net" modified="2023-05-23T07:23:44.086Z" agent="Mozilla/5.0 (Macintosh; Intel Mac OS X 10_15_7) AppleWebKit/605.1.15 (KHTML, like Gecko) Version/14.1.2 Safari/605.1.15" etag="6nAJxsSphriSfn_1T4yh" version="21.3.2" type="device">
  <diagram name="Page-1" id="g6MJ2BGsy2H--Gs6YVRM">
    <mxGraphModel dx="954" dy="647" grid="1" gridSize="10" guides="1" tooltips="1" connect="1" arrows="1" fold="1" page="1" pageScale="1" pageWidth="827" pageHeight="1169" math="0" shadow="0">
      <root>
        <mxCell id="0" />
        <mxCell id="1" parent="0" />
        <mxCell id="ymWy0TGJqXgR9-VHRsqB-2" value="Main Chain" style="ellipse;whiteSpace=wrap;html=1;" parent="1" vertex="1">
          <mxGeometry x="160" y="115" width="130" height="90" as="geometry" />
        </mxCell>
        <mxCell id="ymWy0TGJqXgR9-VHRsqB-3" value="Receiving Chain" style="ellipse;whiteSpace=wrap;html=1;" parent="1" vertex="1">
          <mxGeometry x="540" y="115" width="130" height="90" as="geometry" />
        </mxCell>
        <mxCell id="1H-UabXNkRfVxXWJ81TK-3" style="edgeStyle=orthogonalEdgeStyle;rounded=0;orthogonalLoop=1;jettySize=auto;html=1;exitX=1;exitY=0.5;exitDx=0;exitDy=0;entryX=0;entryY=0.5;entryDx=0;entryDy=0;" edge="1" parent="1" source="ymWy0TGJqXgR9-VHRsqB-4" target="ymWy0TGJqXgR9-VHRsqB-3">
          <mxGeometry relative="1" as="geometry" />
        </mxCell>
        <mxCell id="1H-UabXNkRfVxXWJ81TK-5" style="edgeStyle=orthogonalEdgeStyle;rounded=0;orthogonalLoop=1;jettySize=auto;html=1;exitX=0;exitY=0.5;exitDx=0;exitDy=0;entryX=1;entryY=0.5;entryDx=0;entryDy=0;dashed=1;dashPattern=8 8;" edge="1" parent="1" source="ymWy0TGJqXgR9-VHRsqB-4" target="ymWy0TGJqXgR9-VHRsqB-2">
          <mxGeometry relative="1" as="geometry" />
        </mxCell>
        <mxCell id="ymWy0TGJqXgR9-VHRsqB-4" value="Bridge" style="rounded=0;whiteSpace=wrap;html=1;" parent="1" vertex="1">
          <mxGeometry x="353.5" y="130" width="120" height="60" as="geometry" />
        </mxCell>
        <mxCell id="ymWy0TGJqXgR9-VHRsqB-5" value="Custodian" style="text;html=1;strokeColor=none;fillColor=none;align=center;verticalAlign=middle;whiteSpace=wrap;rounded=0;" parent="1" vertex="1">
          <mxGeometry x="195" y="205" width="60" height="30" as="geometry" />
        </mxCell>
        <mxCell id="ymWy0TGJqXgR9-VHRsqB-6" value="Debt Issuer" style="text;html=1;strokeColor=none;fillColor=none;align=center;verticalAlign=middle;whiteSpace=wrap;rounded=0;" parent="1" vertex="1">
          <mxGeometry x="575" y="210" width="60" height="30" as="geometry" />
        </mxCell>
        <mxCell id="ymWy0TGJqXgR9-VHRsqB-7" value="Actor" style="shape=umlActor;verticalLabelPosition=bottom;verticalAlign=top;html=1;outlineConnect=0;" parent="1" vertex="1">
          <mxGeometry x="30" y="120" width="30" height="60" as="geometry" />
        </mxCell>
        <mxCell id="ymWy0TGJqXgR9-VHRsqB-9" value="Actor" style="shape=umlActor;verticalLabelPosition=bottom;verticalAlign=top;html=1;outlineConnect=0;" parent="1" vertex="1">
          <mxGeometry x="780" y="120" width="30" height="60" as="geometry" />
        </mxCell>
        <mxCell id="ymWy0TGJqXgR9-VHRsqB-10" value="Asset" style="shape=singleArrow;whiteSpace=wrap;html=1;" parent="1" vertex="1">
          <mxGeometry x="60" y="130" width="100" height="60" as="geometry" />
        </mxCell>
        <mxCell id="ymWy0TGJqXgR9-VHRsqB-11" value="Mint Token" style="shape=singleArrow;whiteSpace=wrap;html=1;" parent="1" vertex="1">
          <mxGeometry x="680" y="130" width="100" height="60" as="geometry" />
        </mxCell>
        <mxCell id="ymWy0TGJqXgR9-VHRsqB-12" value="Asset" style="shape=singleArrow;direction=west;whiteSpace=wrap;html=1;" parent="1" vertex="1">
          <mxGeometry x="60" y="325" width="100" height="60" as="geometry" />
        </mxCell>
        <mxCell id="ymWy0TGJqXgR9-VHRsqB-13" value="Burn Token" style="shape=singleArrow;direction=west;whiteSpace=wrap;html=1;" parent="1" vertex="1">
          <mxGeometry x="680" y="320" width="100" height="60" as="geometry" />
        </mxCell>
        <mxCell id="ymWy0TGJqXgR9-VHRsqB-14" value="Actor" style="shape=umlActor;verticalLabelPosition=bottom;verticalAlign=top;html=1;outlineConnect=0;" parent="1" vertex="1">
          <mxGeometry x="30" y="310" width="30" height="60" as="geometry" />
        </mxCell>
        <mxCell id="ymWy0TGJqXgR9-VHRsqB-15" value="Actor" style="shape=umlActor;verticalLabelPosition=bottom;verticalAlign=top;html=1;outlineConnect=0;" parent="1" vertex="1">
          <mxGeometry x="780" y="310" width="30" height="60" as="geometry" />
        </mxCell>
        <mxCell id="ymWy0TGJqXgR9-VHRsqB-16" value="Main Chain" style="ellipse;whiteSpace=wrap;html=1;" parent="1" vertex="1">
          <mxGeometry x="160" y="310" width="130" height="90" as="geometry" />
        </mxCell>
        <mxCell id="ymWy0TGJqXgR9-VHRsqB-17" value="Custodian" style="text;html=1;strokeColor=none;fillColor=none;align=center;verticalAlign=middle;whiteSpace=wrap;rounded=0;" parent="1" vertex="1">
          <mxGeometry x="195" y="400" width="60" height="30" as="geometry" />
        </mxCell>
        <mxCell id="ymWy0TGJqXgR9-VHRsqB-18" value="Receiving Chain" style="ellipse;whiteSpace=wrap;html=1;" parent="1" vertex="1">
          <mxGeometry x="540" y="310" width="130" height="90" as="geometry" />
        </mxCell>
        <mxCell id="ymWy0TGJqXgR9-VHRsqB-19" value="Debt Issuer" style="text;html=1;strokeColor=none;fillColor=none;align=center;verticalAlign=middle;whiteSpace=wrap;rounded=0;" parent="1" vertex="1">
          <mxGeometry x="575" y="400" width="60" height="30" as="geometry" />
        </mxCell>
        <mxCell id="1H-UabXNkRfVxXWJ81TK-7" style="edgeStyle=orthogonalEdgeStyle;rounded=0;orthogonalLoop=1;jettySize=auto;html=1;exitX=1;exitY=0.5;exitDx=0;exitDy=0;entryX=0;entryY=0.5;entryDx=0;entryDy=0;dashed=1;dashPattern=8 8;" edge="1" parent="1" source="ymWy0TGJqXgR9-VHRsqB-21" target="ymWy0TGJqXgR9-VHRsqB-18">
          <mxGeometry relative="1" as="geometry" />
        </mxCell>
        <mxCell id="1H-UabXNkRfVxXWJ81TK-8" style="edgeStyle=orthogonalEdgeStyle;rounded=0;orthogonalLoop=1;jettySize=auto;html=1;exitX=0;exitY=0.5;exitDx=0;exitDy=0;entryX=1;entryY=0.5;entryDx=0;entryDy=0;" edge="1" parent="1" source="ymWy0TGJqXgR9-VHRsqB-21" target="ymWy0TGJqXgR9-VHRsqB-16">
          <mxGeometry relative="1" as="geometry" />
        </mxCell>
        <mxCell id="ymWy0TGJqXgR9-VHRsqB-21" value="Bridge" style="rounded=0;whiteSpace=wrap;html=1;" parent="1" vertex="1">
          <mxGeometry x="354" y="325" width="120" height="60" as="geometry" />
        </mxCell>
        <mxCell id="1H-UabXNkRfVxXWJ81TK-4" value="Debt issuance" style="text;html=1;strokeColor=none;fillColor=none;align=center;verticalAlign=middle;whiteSpace=wrap;rounded=0;" vertex="1" parent="1">
          <mxGeometry x="474" y="145" width="60" height="30" as="geometry" />
        </mxCell>
        <mxCell id="1H-UabXNkRfVxXWJ81TK-6" value="Watches" style="text;html=1;strokeColor=none;fillColor=none;align=center;verticalAlign=middle;whiteSpace=wrap;rounded=0;" vertex="1" parent="1">
          <mxGeometry x="294" y="135" width="60" height="30" as="geometry" />
        </mxCell>
        <mxCell id="1H-UabXNkRfVxXWJ81TK-9" value="Watches" style="text;html=1;strokeColor=none;fillColor=none;align=center;verticalAlign=middle;whiteSpace=wrap;rounded=0;" vertex="1" parent="1">
          <mxGeometry x="480" y="325" width="60" height="30" as="geometry" />
        </mxCell>
        <mxCell id="1H-UabXNkRfVxXWJ81TK-10" value="Release of Funds" style="text;html=1;strokeColor=none;fillColor=none;align=center;verticalAlign=middle;whiteSpace=wrap;rounded=0;" vertex="1" parent="1">
          <mxGeometry x="299" y="320" width="50" height="30" as="geometry" />
        </mxCell>
      </root>
    </mxGraphModel>
  </diagram>
</mxfile>
